<svg xmlns="http://www.w3.org/2000/svg" width="1932" height="828" viewBox="0 0 1932 828">
  <rect width="1932" height="828" fill="#F7F5F0"/>
  <circle cx="1590" cy="154" r="250" fill="#FBECEA"/>
  <circle cx="1810" cy="700" r="290" fill="#E8F0F2"/>
  <path d="M1130 650C1280 515 1400 560 1515 475C1630 390 1710 295 1932 310" fill="none" stroke="#3D7C8A" stroke-width="26" stroke-linecap="round" opacity="0.22"/>

  <g font-family="-apple-system, BlinkMacSystemFont, 'Segoe UI', 'Malgun Gothic', sans-serif" fill="#1F2937">
    <text x="170" y="198" font-size="34" font-weight="700" fill="#A9433D">하루 5문제 지도 퀴즈</text>
    <text x="160" y="348" font-size="92" font-weight="700">한국 지역 이름</text>
    <text x="160" y="462" font-size="92" font-weight="700">맞추기</text>
    <text x="166" y="548" font-size="34" font-weight="400" fill="#657181">지도를 직접 누르며 서울과 경기 지역을 익혀보세요.</text>
  </g>

  <g font-family="-apple-system, BlinkMacSystemFont, 'Segoe UI', 'Malgun Gothic', sans-serif" font-size="28" font-weight="600" fill="#34404D">
    <rect x="160" y="616" width="190" height="70" rx="35" fill="#FFFFFF" stroke="#DDD7CC" stroke-width="3"/>
    <text x="204" y="661">서울 25구</text>
    <rect x="372" y="616" width="244" height="70" rx="35" fill="#FFFFFF" stroke="#DDD7CC" stroke-width="3"/>
    <text x="414" y="661">경기 31시·군</text>
    <rect x="638" y="616" width="170" height="70" rx="35" fill="#A9433D"/>
    <text x="678" y="661" fill="#FFFFFF">5문제</text>
  </g>

  <g transform="translate(1228 142)">
    <rect width="520" height="520" rx="110" fill="#FFFFFF" stroke="#DDD7CC" stroke-width="4"/>
    <path d="M260 75C167 75 92 147 92 237C92 355 260 451 260 451C260 451 428 355 428 237C428 147 353 75 260 75Z" fill="#FBECEA" stroke="#1F2937" stroke-width="15" stroke-linejoin="round"/>
    <circle cx="260" cy="229" r="87" fill="#FFFFFF" stroke="#1F2937" stroke-width="13"/>
    <path d="M240 199C244 171 278 160 301 177C324 194 320 228 294 241C272 252 265 262 265 280" fill="none" stroke="#A9433D" stroke-width="14" stroke-linecap="round"/>
    <circle cx="265" cy="315" r="9" fill="#A9433D"/>
    <path d="M134 466C206 437 310 438 386 469" fill="none" stroke="#3D7C8A" stroke-width="15" stroke-linecap="round"/>
  </g>
</svg>
